<mxfile host="app.diagrams.net" modified="2023-11-06T20:06:21.292Z" agent="Mozilla/5.0 (Macintosh; Intel Mac OS X 10_15_7) AppleWebKit/537.36 (KHTML, like Gecko) Chrome/119.0.0.0 Safari/537.36" etag="SSZudncMR7vNxHZVxdt-" version="22.0.8" type="device">
  <diagram name="Page-1" id="c7558073-3199-34d8-9f00-42111426c3f3">
    <mxGraphModel dx="954" dy="610" grid="1" gridSize="10" guides="1" tooltips="1" connect="1" arrows="1" fold="1" page="1" pageScale="1" pageWidth="826" pageHeight="1169" background="none" math="0" shadow="0">
      <root>
        <mxCell id="0" />
        <mxCell id="1" parent="0" />
        <mxCell id="iilJDLwoaOfIS8HcgSTI-126" value="" style="group" vertex="1" connectable="0" parent="1">
          <mxGeometry x="110" y="450" width="450" height="340" as="geometry" />
        </mxCell>
        <mxCell id="iilJDLwoaOfIS8HcgSTI-96" value="draw card" style="rounded=1;whiteSpace=wrap;html=1;" vertex="1" parent="iilJDLwoaOfIS8HcgSTI-126">
          <mxGeometry x="172.25" y="50" width="97" height="40" as="geometry" />
        </mxCell>
        <mxCell id="iilJDLwoaOfIS8HcgSTI-101" value="caculate score" style="rhombus;whiteSpace=wrap;html=1;rounded=1;" vertex="1" parent="iilJDLwoaOfIS8HcgSTI-126">
          <mxGeometry x="170" y="130" width="101.5" height="80" as="geometry" />
        </mxCell>
        <mxCell id="iilJDLwoaOfIS8HcgSTI-102" value="" style="edgeStyle=orthogonalEdgeStyle;rounded=0;orthogonalLoop=1;jettySize=auto;html=1;" edge="1" parent="iilJDLwoaOfIS8HcgSTI-126" source="iilJDLwoaOfIS8HcgSTI-96" target="iilJDLwoaOfIS8HcgSTI-101">
          <mxGeometry relative="1" as="geometry" />
        </mxCell>
        <mxCell id="iilJDLwoaOfIS8HcgSTI-103" value="lose" style="ellipse;whiteSpace=wrap;html=1;rounded=1;" vertex="1" parent="iilJDLwoaOfIS8HcgSTI-126">
          <mxGeometry x="330" y="130" width="60" height="45" as="geometry" />
        </mxCell>
        <mxCell id="iilJDLwoaOfIS8HcgSTI-104" value="" style="edgeStyle=orthogonalEdgeStyle;rounded=0;orthogonalLoop=1;jettySize=auto;html=1;" edge="1" parent="iilJDLwoaOfIS8HcgSTI-126" source="iilJDLwoaOfIS8HcgSTI-101" target="iilJDLwoaOfIS8HcgSTI-103">
          <mxGeometry relative="1" as="geometry" />
        </mxCell>
        <mxCell id="iilJDLwoaOfIS8HcgSTI-105" value="&amp;gt;21" style="text;html=1;strokeColor=none;fillColor=none;align=center;verticalAlign=middle;whiteSpace=wrap;rounded=0;" vertex="1" parent="iilJDLwoaOfIS8HcgSTI-126">
          <mxGeometry x="290" y="110" width="60" height="30" as="geometry" />
        </mxCell>
        <mxCell id="iilJDLwoaOfIS8HcgSTI-106" value="win" style="ellipse;whiteSpace=wrap;html=1;rounded=1;" vertex="1" parent="iilJDLwoaOfIS8HcgSTI-126">
          <mxGeometry x="330" y="180" width="60" height="45" as="geometry" />
        </mxCell>
        <mxCell id="iilJDLwoaOfIS8HcgSTI-108" value="" style="endArrow=classic;html=1;rounded=0;entryX=0;entryY=0.289;entryDx=0;entryDy=0;entryPerimeter=0;" edge="1" parent="iilJDLwoaOfIS8HcgSTI-126" target="iilJDLwoaOfIS8HcgSTI-106">
          <mxGeometry width="50" height="50" relative="1" as="geometry">
            <mxPoint x="270" y="170" as="sourcePoint" />
            <mxPoint x="320" y="120" as="targetPoint" />
            <Array as="points">
              <mxPoint x="300" y="170" />
              <mxPoint x="300" y="193" />
            </Array>
          </mxGeometry>
        </mxCell>
        <mxCell id="iilJDLwoaOfIS8HcgSTI-109" value="=21" style="text;html=1;strokeColor=none;fillColor=none;align=center;verticalAlign=middle;whiteSpace=wrap;rounded=0;" vertex="1" parent="iilJDLwoaOfIS8HcgSTI-126">
          <mxGeometry x="273" y="195" width="60" height="30" as="geometry" />
        </mxCell>
        <mxCell id="iilJDLwoaOfIS8HcgSTI-110" value="decide strategy/&lt;br&gt;random mutation?" style="rounded=1;whiteSpace=wrap;html=1;" vertex="1" parent="iilJDLwoaOfIS8HcgSTI-126">
          <mxGeometry x="170" y="230" width="97" height="40" as="geometry" />
        </mxCell>
        <mxCell id="iilJDLwoaOfIS8HcgSTI-111" value="get decision" style="whiteSpace=wrap;html=1;rounded=1;" vertex="1" parent="iilJDLwoaOfIS8HcgSTI-126">
          <mxGeometry x="158.5" y="300" width="120" height="20" as="geometry" />
        </mxCell>
        <mxCell id="iilJDLwoaOfIS8HcgSTI-113" value="N" style="text;html=1;strokeColor=none;fillColor=none;align=center;verticalAlign=middle;whiteSpace=wrap;rounded=0;" vertex="1" parent="iilJDLwoaOfIS8HcgSTI-126">
          <mxGeometry x="271.5" y="280" width="60" height="30" as="geometry" />
        </mxCell>
        <mxCell id="iilJDLwoaOfIS8HcgSTI-114" value="get best saved strategy&amp;nbsp;&lt;br&gt;[dealer card, player total, results]" style="rounded=0;whiteSpace=wrap;html=1;" vertex="1" parent="iilJDLwoaOfIS8HcgSTI-126">
          <mxGeometry x="330" y="280" width="120" height="60" as="geometry" />
        </mxCell>
        <mxCell id="iilJDLwoaOfIS8HcgSTI-115" value="" style="endArrow=classic;startArrow=classic;html=1;rounded=0;exitX=1;exitY=0.5;exitDx=0;exitDy=0;entryX=0;entryY=0.5;entryDx=0;entryDy=0;" edge="1" parent="iilJDLwoaOfIS8HcgSTI-126" source="iilJDLwoaOfIS8HcgSTI-111" target="iilJDLwoaOfIS8HcgSTI-114">
          <mxGeometry width="50" height="50" relative="1" as="geometry">
            <mxPoint x="280" y="200" as="sourcePoint" />
            <mxPoint x="330" y="150" as="targetPoint" />
          </mxGeometry>
        </mxCell>
        <mxCell id="iilJDLwoaOfIS8HcgSTI-116" value="Y" style="text;html=1;strokeColor=none;fillColor=none;align=center;verticalAlign=middle;whiteSpace=wrap;rounded=0;" vertex="1" parent="iilJDLwoaOfIS8HcgSTI-126">
          <mxGeometry x="172.25" y="270" width="60" height="30" as="geometry" />
        </mxCell>
        <mxCell id="iilJDLwoaOfIS8HcgSTI-117" value="" style="endArrow=classic;html=1;rounded=0;exitX=0;exitY=0.5;exitDx=0;exitDy=0;" edge="1" parent="iilJDLwoaOfIS8HcgSTI-126" source="iilJDLwoaOfIS8HcgSTI-111">
          <mxGeometry width="50" height="50" relative="1" as="geometry">
            <mxPoint x="50" y="260" as="sourcePoint" />
            <mxPoint x="170" y="70" as="targetPoint" />
            <Array as="points">
              <mxPoint x="90" y="310" />
              <mxPoint x="90" y="170" />
              <mxPoint x="90" y="70" />
            </Array>
          </mxGeometry>
        </mxCell>
        <mxCell id="iilJDLwoaOfIS8HcgSTI-112" value="" style="edgeStyle=orthogonalEdgeStyle;rounded=0;orthogonalLoop=1;jettySize=auto;html=1;" edge="1" parent="iilJDLwoaOfIS8HcgSTI-126" source="iilJDLwoaOfIS8HcgSTI-110" target="iilJDLwoaOfIS8HcgSTI-111">
          <mxGeometry relative="1" as="geometry" />
        </mxCell>
        <mxCell id="iilJDLwoaOfIS8HcgSTI-118" value="" style="endArrow=classic;html=1;rounded=0;exitX=0.5;exitY=1;exitDx=0;exitDy=0;entryX=0.5;entryY=0;entryDx=0;entryDy=0;" edge="1" parent="iilJDLwoaOfIS8HcgSTI-126" source="iilJDLwoaOfIS8HcgSTI-101" target="iilJDLwoaOfIS8HcgSTI-110">
          <mxGeometry width="50" height="50" relative="1" as="geometry">
            <mxPoint x="-80" y="230" as="sourcePoint" />
            <mxPoint x="-30" y="180" as="targetPoint" />
          </mxGeometry>
        </mxCell>
        <mxCell id="iilJDLwoaOfIS8HcgSTI-119" value="" style="endArrow=classic;html=1;rounded=0;entryX=0;entryY=0.5;entryDx=0;entryDy=0;" edge="1" parent="iilJDLwoaOfIS8HcgSTI-126" target="iilJDLwoaOfIS8HcgSTI-101">
          <mxGeometry width="50" height="50" relative="1" as="geometry">
            <mxPoint x="120" y="310" as="sourcePoint" />
            <mxPoint x="120" y="170" as="targetPoint" />
            <Array as="points">
              <mxPoint x="120" y="170" />
            </Array>
          </mxGeometry>
        </mxCell>
        <mxCell id="iilJDLwoaOfIS8HcgSTI-120" value="Hit&lt;br&gt;DoubleDown" style="text;html=1;strokeColor=none;fillColor=none;align=center;verticalAlign=middle;whiteSpace=wrap;rounded=0;" vertex="1" parent="iilJDLwoaOfIS8HcgSTI-126">
          <mxGeometry y="155" width="60" height="30" as="geometry" />
        </mxCell>
        <mxCell id="iilJDLwoaOfIS8HcgSTI-121" value="Stick" style="text;html=1;strokeColor=none;fillColor=none;align=center;verticalAlign=middle;whiteSpace=wrap;rounded=0;" vertex="1" parent="iilJDLwoaOfIS8HcgSTI-126">
          <mxGeometry x="112.25" y="180" width="60" height="30" as="geometry" />
        </mxCell>
        <mxCell id="iilJDLwoaOfIS8HcgSTI-122" value="compare&lt;br&gt;delaer" style="ellipse;whiteSpace=wrap;html=1;rounded=1;" vertex="1" parent="iilJDLwoaOfIS8HcgSTI-126">
          <mxGeometry x="330" y="75" width="60" height="45" as="geometry" />
        </mxCell>
        <mxCell id="iilJDLwoaOfIS8HcgSTI-123" value="" style="endArrow=classic;html=1;rounded=0;entryX=0;entryY=0.5;entryDx=0;entryDy=0;" edge="1" parent="iilJDLwoaOfIS8HcgSTI-126" target="iilJDLwoaOfIS8HcgSTI-122">
          <mxGeometry width="50" height="50" relative="1" as="geometry">
            <mxPoint x="300" y="150" as="sourcePoint" />
            <mxPoint x="330" y="150" as="targetPoint" />
            <Array as="points">
              <mxPoint x="300" y="98" />
            </Array>
          </mxGeometry>
        </mxCell>
        <mxCell id="iilJDLwoaOfIS8HcgSTI-124" value="S" style="text;html=1;strokeColor=none;fillColor=none;align=center;verticalAlign=middle;whiteSpace=wrap;rounded=0;" vertex="1" parent="iilJDLwoaOfIS8HcgSTI-126">
          <mxGeometry x="290" y="70" width="60" height="30" as="geometry" />
        </mxCell>
        <mxCell id="iilJDLwoaOfIS8HcgSTI-125" value="Calculate Player Score" style="text;html=1;strokeColor=none;fillColor=none;align=center;verticalAlign=middle;whiteSpace=wrap;rounded=0;" vertex="1" parent="iilJDLwoaOfIS8HcgSTI-126">
          <mxGeometry x="60" width="60" height="30" as="geometry" />
        </mxCell>
      </root>
    </mxGraphModel>
  </diagram>
</mxfile>
